<svg width="128" height="128" fill="#00deae"
  xmlns="http://www.w3.org/2000/svg" viewBox="0 0 93.36 93.361">
  <path d="M18.55 66.631l3.774 5.289c-6.539-1.37-11.465-7.179-11.465-14.118H3.331c0 10.37 7.239 19.066 16.922 21.352l-5.105 3.635 3.915 5.496 15.392-10.959-10.406-14.609-5.499 3.914zM40.693 24.271v68.377H93.36V24.271H40.693zm47.356 63.066H46.004V29.581h42.044v57.756z"/>
  <path d="M52.201 40.534h30.205v5.313H52.201zM52.201 55.535h30.205v5.312H52.201zM52.201 70.535h30.205v5.312H52.201zM84.342.712H0v49.143h35.953v-7.676h-2.229v-7.346h2.229v-5.877h-2.229v-7.344h2.229v-2.078h48.389V.712zM24.175 42.179H7.28v-7.346h16.896l-.001 7.346zm0-13.223H7.28v-7.344h16.896l-.001 7.344zm0-13.222H7.28V8.39h16.896l-.001 7.344zm26.443 0H33.724V8.39h16.895l-.001 7.344zm26.444 0H60.168V8.39h16.895v7.344z"/>
</svg>
